<?xml version="1.0" encoding="utf-8"?>
<!-- Generator: Adobe Illustrator 18.1.1, SVG Export Plug-In . SVG Version: 6.00 Build 0)  -->
<!DOCTYPE svg PUBLIC "-//W3C//DTD SVG 1.1//EN" "http://www.w3.org/Graphics/SVG/1.1/DTD/svg11.dtd">
<svg version="1.1" id="Layer_1" xmlns="http://www.w3.org/2000/svg" xmlns:xlink="http://www.w3.org/1999/xlink" x="0px" y="0px"
	 viewBox="-111.3 219.7 68.1 40.1" enable-background="new -111.3 219.7 68.1 40.1" xml:space="preserve">
<g>
	<path fill="#FFFFFF" d="M-111.3,246.3c0,0.1,0,0.1,0,0.2C-111.3,246.4-111.3,246.4-111.3,246.3z"/>
	<path fill="#FFFFFF" d="M-111.3,246.2C-111.3,246.2-111.3,246.3-111.3,246.2C-111.3,246.3-111.3,246.3-111.3,246.2z"/>
	<path fill="#FFFFFF" d="M-80.9,239l-1.6,0c0,0,0,0,0,0c-2.7-6.9-9-5.3-12.6,0c-3.7,5.5-9,11.9-16.1,7.3c1.5,22.2,35.2,15,29.3-5.4
		L-80.9,239z M-86.5,249c0.7,5.8-6.2,8.7-11,8.6c-4.2-0.2-6.9-2.8-9.5-5.7c0,0,0,0,0,0c0,0,0,0,0,0c0,0.1,0.1,0.1,0.1,0.1
		c0,0,0,0,0.1,0.1c0.1,0.1,0.1,0.1,0.2,0.2c0.1,0.1,0.1,0.1,0.1,0.1c0,0,0,0,0,0c0,0-0.1-0.1-0.1-0.1c0-0.1-0.1-0.1-0.2-0.2
		c0,0,0,0-0.1-0.1c-0.1-0.1-0.1-0.1-0.1-0.1c0,0,0,0,0,0c0,0,0,0,0,0c5.4,1.1,8.4-1.4,12-5C-92.1,243.9-87.1,244.4-86.5,249z"/>
	<path fill="#FFFFFF" d="M-107,251.8C-107,251.8-107,251.9-107,251.8C-107,251.9-107,251.8-107,251.8z"/>
	<path fill="#FFFFFF" d="M-107,251.8C-107,251.8-107,251.8-107,251.8C-107,251.8-107,251.8-107,251.8z"/>
	<path fill="#FFFFFF" d="M-107,251.9c0,0,0.1,0.1,0.1,0.1C-106.9,252-106.9,251.9-107,251.9z"/>
	<path fill="#FFFFFF" d="M-106.8,252.1c0.1,0.1,0.1,0.1,0.2,0.2C-106.7,252.2-106.7,252.1-106.8,252.1z"/>
	<path fill="#FFFFFF" d="M-106.8,252C-106.8,252-106.8,252-106.8,252C-106.8,252-106.8,252-106.8,252z"/>
	<path fill="#FFFFFF" d="M-106.5,252.4C-106.5,252.4-106.5,252.4-106.5,252.4L-106.5,252.4z"/>
	<path fill="#FFFFFF" d="M-106.6,252.2c0.1,0.1,0.1,0.1,0.1,0.1C-106.5,252.4-106.6,252.3-106.6,252.2z"/>
</g>
<g>
	<path fill="#FFFFFF" d="M-43.2,246.3c0,0.1,0,0.1,0,0.2C-43.2,246.4-43.2,246.4-43.2,246.3z"/>
	<path fill="#FFFFFF" d="M-43.2,246.2C-43.2,246.2-43.2,246.3-43.2,246.2C-43.2,246.3-43.2,246.3-43.2,246.2z"/>
	<path fill="#FFFFFF" d="M-72.5,240.8c-5.8,20.5,27.9,27.7,29.3,5.4c-7.2,4.6-12.4-1.7-16.1-7.3c-3.6-5.3-9.9-6.9-12.6,0
		c0,0,0,0,0,0l-1.6,0L-72.5,240.8z M-59.4,246.9c3.6,3.6,6.6,6.1,12,5c0,0,0,0,0,0c0,0,0,0,0,0c0,0-0.1,0.1-0.1,0.1c0,0,0,0-0.1,0.1
		c-0.1,0.1-0.1,0.1-0.2,0.2c-0.1,0.1-0.1,0.1-0.1,0.1c0,0,0,0,0,0c0,0,0.1-0.1,0.1-0.1c0,0,0.1-0.1,0.2-0.2c0,0,0,0,0.1-0.1
		c0,0,0.1-0.1,0.1-0.1c0,0,0,0,0,0c0,0,0,0,0,0c-2.6,3-5.2,5.6-9.5,5.7c-4.8,0.2-11.6-2.8-11-8.6C-67.4,244.4-62.4,243.9-59.4,246.9
		z"/>
	<path fill="#FFFFFF" d="M-47.5,251.8C-47.5,251.8-47.5,251.9-47.5,251.8C-47.5,251.9-47.5,251.8-47.5,251.8z"/>
	<path fill="#FFFFFF" d="M-47.5,251.8C-47.5,251.8-47.5,251.8-47.5,251.8C-47.5,251.8-47.5,251.8-47.5,251.8z"/>
	<path fill="#FFFFFF" d="M-47.5,251.9c0,0-0.1,0.1-0.1,0.1C-47.6,252-47.5,251.9-47.5,251.9z"/>
	<path fill="#FFFFFF" d="M-47.7,252.1c-0.1,0.1-0.1,0.1-0.2,0.2C-47.8,252.2-47.7,252.1-47.7,252.1z"/>
	<path fill="#FFFFFF" d="M-47.6,252C-47.6,252-47.7,252-47.6,252C-47.7,252-47.6,252-47.6,252z"/>
	<path fill="#FFFFFF" d="M-48,252.4C-48,252.4-48,252.4-48,252.4L-48,252.4z"/>
	<path fill="#FFFFFF" d="M-47.8,252.2c-0.1,0.1-0.1,0.1-0.1,0.1C-47.9,252.4-47.9,252.3-47.8,252.2z"/>
</g>
<path fill="#FFFFFF" d="M-71.9,220.1c-1.9-0.8-4.1-0.2-5.3,1.5c-1.2-1.7-3.4-2.3-5.3-1.5c-2.2,1-3.2,3.5-2.3,5.7
	c1,2.2,7.4,6.4,7.5,6.4c0.1,0,6.6-4.2,7.5-6.4C-68.7,223.6-69.7,221.1-71.9,220.1z"/>
</svg>
