<svg xmlns="http://www.w3.org/2000/svg" xmlns:xlink="http://www.w3.org/1999/xlink" version="1.1" id="Layer_1" x="0px" y="0px" width="100px" height="100px" viewBox="5.0 -10.0 100.0 135.0" enable-background="new 0 0 100 100" xml:space="preserve">
<g>
	<path d="M4.685,62.01c0.006,0.074,0.01,0.14,0.014,0.211C4.694,62.137,4.688,62.064,4.685,62.01z"/>
	<path d="M4.677,61.885c0,0,0.002,0.036,0.006,0.098C4.681,61.948,4.679,61.919,4.677,61.885z"/>
	<path d="M45.645,52.073l-2.174,0.05c-0.008-0.021-0.013-0.04-0.021-0.059c-3.615-9.341-12.215-7.18-17.022,0.012   c-4.984,7.456-12.086,16.077-21.751,9.809c1.996,30.035,47.455,20.291,39.607-7.324L45.645,52.073z M38.065,65.621   c0.897,7.764-8.356,11.806-14.827,11.55c-5.712-0.228-9.266-3.726-12.76-7.747c0.003,0.004,0.006,0.007,0.01,0.011   c0.005,0.006,0.013,0.015,0.022,0.026c0.06,0.068,0.115,0.131,0.165,0.189c0.026,0.029,0.054,0.062,0.083,0.094   c0.082,0.095,0.149,0.172,0.204,0.236c0.072,0.081,0.133,0.153,0.17,0.196c0.055,0.062,0.045,0.052,0,0   c-0.032-0.037-0.088-0.102-0.17-0.196c-0.065-0.074-0.136-0.156-0.204-0.236c-0.026-0.029-0.054-0.061-0.083-0.094   c-0.07-0.081-0.13-0.15-0.165-0.189c-0.008-0.01-0.015-0.018-0.022-0.026c-0.006-0.007-0.01-0.011-0.01-0.011   c7.229,1.492,11.351-1.879,16.156-6.686C30.6,58.771,37.346,59.386,38.065,65.621z"/>
	<path fill="#000000" d="M10.488,69.435c0.007,0.009,0.014,0.017,0.022,0.026C10.501,69.449,10.494,69.44,10.488,69.435z"/>
	<path fill="#000000" d="M10.479,69.424c0,0,0.004,0.004,0.01,0.011C10.484,69.431,10.481,69.428,10.479,69.424z"/>
	<path fill="#000000" d="M10.51,69.461c0.035,0.039,0.095,0.108,0.165,0.189C10.625,69.592,10.57,69.529,10.51,69.461z"/>
	<path fill="#000000" d="M10.758,69.744c0.068,0.08,0.139,0.162,0.204,0.236C10.907,69.916,10.839,69.839,10.758,69.744z"/>
	<path fill="#000000" d="M10.675,69.65c0.028,0.033,0.057,0.064,0.083,0.094C10.729,69.712,10.702,69.68,10.675,69.65z"/>
	<path fill="#000000" d="M11.132,70.177C11.177,70.229,11.187,70.239,11.132,70.177L11.132,70.177z"/>
	<path fill="#000000" d="M10.962,69.98c0.083,0.095,0.138,0.159,0.17,0.196C11.095,70.134,11.034,70.062,10.962,69.98z"/>
</g>
<g>
	<path d="M96.607,62.01c-0.006,0.074-0.01,0.14-0.014,0.211C96.599,62.137,96.604,62.064,96.607,62.01z"/>
	<path d="M96.615,61.885c0,0-0.002,0.036-0.006,0.098C96.611,61.948,96.613,61.919,96.615,61.885z"/>
	<path d="M57.008,54.561C49.16,82.176,94.62,91.92,96.615,61.885c-9.664,6.269-16.767-2.353-21.751-9.809   c-4.808-7.192-13.406-9.353-17.022-0.012c-0.008,0.019-0.014,0.038-0.021,0.059l-2.174-0.05L57.008,54.561z M74.658,62.738   c4.805,4.807,8.927,8.178,16.155,6.686c0,0-0.004,0.004-0.01,0.011c-0.007,0.009-0.015,0.017-0.022,0.026   c-0.034,0.039-0.095,0.108-0.165,0.189c-0.027,0.033-0.056,0.064-0.082,0.094c-0.068,0.08-0.139,0.162-0.205,0.236   c-0.081,0.095-0.137,0.159-0.169,0.196c-0.046,0.052-0.056,0.062,0,0c0.036-0.043,0.098-0.115,0.169-0.196   c0.057-0.064,0.124-0.142,0.205-0.236c0.028-0.032,0.057-0.064,0.082-0.094c0.051-0.059,0.105-0.121,0.165-0.189   c0.01-0.012,0.018-0.021,0.022-0.026c0.004-0.004,0.007-0.007,0.01-0.011c-3.494,4.021-7.048,7.52-12.761,7.747   c-6.471,0.256-15.723-3.786-14.826-11.55C63.946,59.386,70.692,58.771,74.658,62.738z"/>
	<path fill="#000000" d="M90.804,69.435c-0.007,0.009-0.015,0.017-0.022,0.026C90.791,69.449,90.799,69.44,90.804,69.435z"/>
	<path fill="#000000" d="M90.813,69.424c0,0-0.004,0.004-0.01,0.011C90.808,69.431,90.811,69.428,90.813,69.424z"/>
	<path fill="#000000" d="M90.781,69.461c-0.034,0.039-0.095,0.108-0.165,0.189C90.667,69.592,90.722,69.529,90.781,69.461z"/>
	<path fill="#000000" d="M90.534,69.744c-0.068,0.08-0.139,0.162-0.205,0.236C90.386,69.916,90.453,69.839,90.534,69.744z"/>
	<path fill="#000000" d="M90.616,69.65c-0.027,0.033-0.056,0.064-0.082,0.094C90.562,69.712,90.591,69.68,90.616,69.65z"/>
	<path fill="#000000" d="M90.16,70.177C90.114,70.229,90.104,70.239,90.16,70.177L90.16,70.177z"/>
	<path fill="#000000" d="M90.329,69.98c-0.081,0.095-0.137,0.159-0.169,0.196C90.196,70.134,90.258,70.062,90.329,69.98z"/>
</g>
<path d="M57.786,26.595c-2.605-1.13-5.581-0.218-7.141,2.029c-1.56-2.247-4.536-3.159-7.141-2.029  c-2.969,1.287-4.332,4.738-3.044,7.707c1.287,2.969,10.056,8.592,10.185,8.676c0.098-0.063,8.898-5.707,10.187-8.676  C62.119,31.333,60.755,27.882,57.786,26.595z"/>
<text x="0.0" y="117.5" font-size="5.0" font-weight="bold" font-family="Helvetica Neue, Helvetica, Arial-Unicode, Arial, Sans-serif" fill="#000000">Created by Megan Sheehan</text><text x="0.0" y="122.5" font-size="5.0" font-weight="bold" font-family="Helvetica Neue, Helvetica, Arial-Unicode, Arial, Sans-serif" fill="#000000">from the Noun Project</text></svg>