<?xml version="1.0" encoding="utf-8"?>
<!-- Generator: Adobe Illustrator 18.1.1, SVG Export Plug-In . SVG Version: 6.00 Build 0)  -->
<!DOCTYPE svg PUBLIC "-//W3C//DTD SVG 1.1//EN" "http://www.w3.org/Graphics/SVG/1.1/DTD/svg11.dtd">
<svg version="1.1" id="Layer_1" xmlns="http://www.w3.org/2000/svg" xmlns:xlink="http://www.w3.org/1999/xlink" x="0px" y="0px"
	 viewBox="2 48 364 410" enable-background="new 2 48 364 410" xml:space="preserve">
<g id="Page-1">
	<g id="Mobile">
		<rect id="Rectangle-1" x="2" y="48" fill="none" width="364" height="387"/>
		<g enable-background="new    ">
			<path fill="#A4484C" d="M71,78.8c-4.2-0.3-14.4-3.8-11.2-10.2c0.9-1.5,2.7-1.6,4.6-1.5c16,0.3,32.4,0.4,48.4,1
				c3.9,0.1,6.1-1.2,7.9-4.2c0.8-1.3,1.5-2.5,2.4-3.6c2.5-3.3,4.6-3.5,7.6-0.8c1.8,1.5,3.1,3.1,4.2,4.9c1,2.1,2.5,2.2,4.6,2.2
				c7.4-0.6,14.5-0.8,21.7-1c3.4,0,6.6-0.1,9.7,0.2c2.4,0.1,6.1,0.8,7.9,2.7c2.5,2.9,1.2,7-2.9,7.2c-13,1-26.4,1.8-39.4,2.2
				c-3.8,0.1-6.3,1.5-8.1,5.1c-3.1,5.7-7,10.8-9.9,16.8c-12.1,24.3-24.6,48.7-32.5,74.8c-2,6.3-8.7,21.6,1.5,24
				c9.7,2.2,22.9-7.6,29.8-13.5c1.4-1.2,2.5-2.4,4-3c1.5-0.9,3.3-1.2,4.9-0.6c-1.5-0.6-9.6,8.8-10.6,10
				c-6.3,6.1-14.7,11.4-23.5,11.5c-9.9,0.1-19.6-5.8-20.1-16.3c-0.4-9.9,1.2-19.2,4-28.5c4.9-16.3,11.7-31.8,18.7-47.2
				c4.5-9.7,9.6-19.2,14.2-28.8c0.3-0.9,0.6-1.6,1.5-3.3C97.5,79.6,84.3,79.9,71,78.8z"/>
			<path fill="#A4484C" d="M189.3,173.3c-7.6,3.8-15.3,7.5-23.5,9.6c-1.6,0.6-2.7,1.3-3.5,2.8c-4,8-7.9,16-12.1,23.8
				c-4.5,8.5-11.2,14.8-19.8,19c-9.1,4.6-27.4,10.8-28.9-5c-0.8-7.6,8.5-13.5,13.9-17.1c3.7-2.5,7.3-5.5,11.4-7.8
				c5.4-3.3,11.2-5.8,16.8-9c1.2-0.5,2.4-0.9,2.8-1.8c3.5-6.3,6.4-12.7,9.8-19.2c-0.3-0.1-0.5-0.3-0.6-0.5c-2.5,1.5-5.1,2.9-7.8,4.2
				c-3.8,2.2-7.8,5-12.4,4.5c-9.8-1.2-11.2-14.7-7.4-21.6c2.7-4.5,5.9-8.8,8.7-13.2c0.8-1.2,1.5-2.4,2.1-4c-1,0.3-1.8,0.6-2.7,0.9
				c-1.4,0.6-2.9,1.3-4.2,1.9c-2.2,0.9-3.3-0.1-3.6-2.4c-0.1-0.8,5.7-3.6,6.4-3.9c2.4-1.2,4.8-2.1,7.2-3c2.8-1.2,5.2-1.5,7.6,0.8
				c2,1.5,3.1,3.9,3,6.3c0,2.9-1.9,5.2-3.3,7.5c-2.9,5.4-5.4,10.9-8.4,16c-1.2,1.8-2.2,4-3,6.1c-0.9,2.5,1.3,1.6,3.3,0.8
				c7.8-3.9,15.1-8.2,21.4-14.4c1.2-1.2,2.2-2.8,3.1-4.5c3.9-6.9,7.5-13.9,11.2-21c1.3-2.7,6.7-4.5,9.3-2.5
				c3.8,2.7-0.1,9.6-1.6,12.4c-4.4,9.9-8.9,19.6-13.8,29.4c-0.5,0.9-4.8,8.4-4.3,9c0.1,0.2,0.4,0.3,0.4,0.5
				c3.9-1.2,7.8-2.7,11.5-4.2c3.1-1.3,6.1-2.8,9.1-4.2c1.5-0.8,2.8-1,4.3,0.3C192,171.6,190.8,172.7,189.3,173.3z M142.3,194.9
				c-5.2,2.6-10.2,5-14.7,8.1c-4.8,3.2-9.3,6.5-13.9,9.8c-2.9,2-5.9,4.3-7,7.6c-1.1,3.3,0,7.2,1.9,10c1.4,2.4,3,2.8,5.5,1.5
				c3.6-2,6.6-4.9,9.4-7.8c7.8-8.1,13.8-17.7,18.6-28C142.3,195.9,142.2,195.6,142.3,194.9z"/>
			<path fill="#A4484C" d="M216.3,173.5c-3.2,3.4-19.2,16.3-23.4,18.9c-2.5,1.5-6.9,1.5-9.4-0.1c-0.6-0.3-0.9-0.8-1.4-1.2
				c-2.1-3.3-0.4-9.8,0.1-12.9c1.8-8.2,4.6-16.3,7.8-24.3c0.5-1,0.8-2.1,1.3-3.6c-2.2,0.6-2.8,2.2-3.8,3.4c-1.3,1.5-2.5,1.7-4.5,0.2
				c-0.8-0.6,7.5-9.6,8.4-10.5c2.8-3.1,5.1-3.6,9-2c2.9,1.2,5.1,4.2,4.7,7.7c-1,8.5-5,16.5-8.2,24.6c-0.9,2.2-1.8,4.5-2.7,6.9
				c-0.3,0.8-2.1,5.5-3.3,8.2c5.5-2.8,22.8-18.9,28.2-21.7C219.4,169.5,217.6,172.1,216.3,173.5z M196.6,131.3
				c2.4-3.3,4.3-3.6,6.3-1.4c1.2,1.4,0.6,3.3-1.2,3.6C200.1,134,198.6,133.3,196.6,131.3z"/>
			<path fill="#A4484C" d="M218.5,146.9c0-0.4-0.3-0.9-0.1-1.2c2.7-6.9,10.9-9,16.8-4.7c3.3,2.5,4.2,5.4,3.2,9.2
				c-0.8,2.4-1.2,4.8-2,7.6c3.2-3,6-5.7,8.8-8.4c3.5-3.3,7.5-5.5,12.6-5.1c3,0.3,5.7,2.2,7,5c2.7,5.5-1.6,13.5-3.4,18.7
				c-2.6,6.8-5.1,13.5-7.7,20.4c-3.5,9.4-9.1,17.8-13.6,27c1.2-0.6,2.1-2.2,3-3.2c2.1-2.5,4.2-4.9,6.1-7.3c5-5.8,9.9-11.5,14.7-17.4
				c6.6-7.8,14.2-14.7,21.4-22c1.6-1.6,3.9-4.3,5.5-6c1.4-1.5,2.9-2.4,5-1.3c0.6,1.5-0.6,2.2-1.5,3.1c-5.5,5.4-12.3,11.4-17.2,17.2
				c-3.3,4-24,31.2-26.8,35.5c-2.7,4.5-5.4,9.9-10,12.6c-4.5,2.7-9.6-0.8-11.5-5.1c-1.5-3.5-1-7.2,0.1-10.6
				c3.8-10,9.2-19.5,13.8-29.2c4.8-10,8.4-20.8,12.5-31.2c0.1-0.5,0.1-1,0.1-1.7c-2.2-0.8-4.2-0.1-5.7,1.5
				c-5.1,4.8-10.5,9.8-15,15.1c-4.2,5.1-6.1,11.5-8.8,17.5c-3.9,9.3-15.1-0.9-11.4-8.2c2.7-5.4,5.1-10.9,7.5-16.5
				c1.5-3.3,2.8-6.8,4.3-10.2c0.3-0.8,0.5-1.6,0.8-2.8C223.8,146.2,221.5,148.4,218.5,146.9z"/>
		</g>
		<g enable-background="new    ">
			<path fill="#A4484C" d="M296.8,168.8c-3.3-1.3-5.2-3.8-5.7-7.3c-0.3-3.9,0.4-8.1,2.7-11.4c2.5-3.6,5.1-7.3,8.1-10.3
				c5-4.8,11.1-4.3,16.3,0.6c1-2.5,2.2-4.9,3.5-7.3c0.8-1.8,1.8-3.6,2.8-5.2c0.9-1.3,2-3.1,3.6-3.6c2.7-0.9,5,0,6.2,2.4
				c1.5,3.1,0.4,6.6-0.9,9.6c-2.8,6.7-5.1,13.9-7.5,21c-2.7,7.6-5.2,15.3-7.8,23.1c-0.1,0.5-0.1,0.9-0.3,2.4c2.9-3,5.1-5.2,7.3-7.5
				c3.9-4,14.5-14.8,18.6-18.7c2.1-2.1,4-2,6.1,0.3c-1,1-2.1,2.2-3.1,3.3c-8.5,8.8-23.8,24.6-32.4,33.4c-0.9,0.9-1.5,2.1-1.8,3.3
				c-1.9,6.6-3.6,13.2-5.7,19.6c-2.2,6.9-4.7,13.6-7.3,20.4c-2,4.6-5.7,8.4-9.8,11.2c-3.8,2.4-9.3,5.2-13.8,2.8
				c-6-3.2-10.3-9.6-5.9-16.2c1.2-2,2.7-3.6,4.2-5.2c7.6-8.5,15.4-17.1,23.2-25.6c0.8-0.9,1.5-1.8,1.8-3c3-10.7,5.8-21.3,8.7-32.1
				c-0.2-0.2-0.5-0.3-0.6-0.6C304,170.3,300.4,170.3,296.8,168.8z M295,213.3c-2.2,2.4-4.6,5-6.9,7.4c-3.3,3.4-7.3,6.4-11,9.9
				c-3,2.8-7.9,7.5-5.8,12.1c2,4.3,6.6,6.8,10.5,3.5c8.2-6.6,10.6-18.9,13.2-28.5c0.3-0.8,0.9-4.7,1.5-5
				C295.6,213,295.2,213.2,295,213.3z M304.3,160.1c4-3.5,6.9-8.1,8.7-12.9c0.9-3-0.5-7.7-4-5.5c-6.6,3.9-11.2,13.6-9.9,21
				C299.3,163.5,303.8,160.5,304.3,160.1z"/>
		</g>
		<g enable-background="new    ">
			<path fill="#A4484C" d="M180.8,248c0.5,0.8,0.4,1.3-0.4,1.5c-0.1,0.1-0.1,0.1-0.1,0.1c-1.7,0-2.3,1.1-2.8,2.5
				c-1.3,3.5-3,6.7-4.2,10.1c-1.3,3.8-3.1,7.4-4.6,11.2c-0.5,1.1-2.6,6.2-1,6.9c1.4,0.7,3-2,3.7-2.8c1.1-1.1,2.1-2.3,3.1-3.5
				c1.1-1.4,2.1-3.1,3.1-4.6c0.8-1.1,1.7-2.3,2.4-3.5c0.5-0.7,1-0.6,1.5-0.3c0.6,0.3,0.5,0.8,0.1,1.3c-0.2,0.3-0.4,0.6-0.7,0.9
				c-1.4,2.2-2.9,4.3-4.4,6.4c-1.1,1.6-2.3,3.1-3.7,4.5c-1,1-1.9,2-3.2,2.8c-1.8,1-4.1,0.4-5.3-1.3c-1.4-2-0.9-5.2-0.2-7.4
				c1.1-4.1,2.5-8.1,3.8-12.1c1-2.9,2-5.8,3.1-8.6c0.1-0.3,0.1-0.7,0.2-1c-1.2-0.4-2.3,0.8-3.7-0.1c0.5-0.4,0.9-0.7,1.3-0.9
				c0.3-0.1,0.6-0.2,0.9-0.2c1.9-0.1,2.8-1.3,3.4-2.9c0.8-1.9,1.6-3.8,2.3-5.8c0.6-1.4,1.1-3.1,3-2.5c1.6,0.5,2.9,2.5,2.4,4.2
				c-0.4,1.7-1.1,3.4-1.7,5.2C179.8,248,180.3,248,180.8,248z"/>
			<path fill="#A4484C" d="M189.7,267.5c0.7,1.4,1,2.9,0.8,4.6c-0.2,4.6-2.2,8.7-3.7,12.9c-0.5,1.3-1.3,4.1-1.8,5.7
				c1.7-1.7,3.2-3.5,6.2-7.8c1.3-2,2.3-4.1,3.5-6.2c1.1-2,2.3-4,3.4-6.1c0.5-0.7,0.9-1.4,1.3-2.1c0.3-0.4,0.8-1.6,1.2-1.9
				c0.3-0.2,1.1-0.5,1.4-0.1c0.2,0.6-0.8,2-1.1,2.5c-0.4,0.7-0.7,1.3-1,2c-1.1,1.9-2.1,3.8-3.1,5.8c-1.4,2.6-2.8,5.3-4.4,7.8
				c-4.3,6.5-8.2,9-9.5,9.2c-1,0.1-1.7-0.3-2-1.2c-0.4-1.1-0.1-2.7,0-3.8c0.1-1.3,0.4-2.7,0.9-4c1.4-3.8,2.8-7.6,4.1-11.4
				c0.4-1,0.7-1.9,1-2.9c0.3-0.8,1.1-2.2-0.2-2.6c-1.2-0.4-2.3,1-2.9,1.9c-0.7,1-1,2.1-1.3,3.2c-0.8,2.5-1.5,5-2.2,7.5
				c-0.4,1.2-0.7,1.9-2,1.6c-0.4-0.1-0.8-0.2-1.1-0.5c-1.1-0.9-1-2.4-0.7-3.5c1.3-4.7,2.5-9.5,4-14.1c1-3.1,2.5-6,3.7-9
				c1.6-3.7,3.7-7.1,5.8-10.4c0.9-1.4,2-2.6,3.2-4c0.7-0.8,1.8-1.6,2.9-1.4c1.3,0.2,1.6,1.3,1.7,2.3c0.3,2.6-0.5,5.1-1.5,7.4
				c-0.9,2.2-1.8,4.6-3.3,6.5c-1.4,1.9-3.4,3.4-5,5.2c-0.8,0.9-1.6,2-2.1,3.1c-0.2,0.5-0.4,1-0.5,1.5c-0.1,0.3-0.1,1.1-0.4,1.2
				C186.4,265.5,188.9,265.9,189.7,267.5z M192.7,252.5c1.1-2.6,2-5.2,3-7.8c0.1-0.4,0.1-0.8,0.1-1.2c-0.2-0.1-0.3-0.1-0.4-0.1
				c-2.2,4.5-4.4,9-6.7,13.5C190.4,255.6,191.9,254.3,192.7,252.5z"/>
			<path fill="#A4484C" d="M214.7,267.2c-1.7,1.6-3.5,3.1-5,4.9c-2,2.3-9.2,9.4-11.7,3.8c-1.7-4.1-0.4-8.5,1.7-12.2
				c2-3.5,4.7-7.6,8.8-8.8c1.6-0.5,2.3-0.1,2.8,1.5c0.8,2.5-0.1,4.5-1.6,6.4c-1.7,2.1-3.4,3.5-5.8,4.8c-0.4,0.2-1,0.5-1.2,0.8
				c-1.2,1.6-1.7,4.7-1.1,6.9c0.1,0.5,4.1-2.1,4.5-2.3c2.5-1.7,4.7-4,7-6.1c0.4-0.4,0.7-0.7,1.1-1.1s0.8-0.4,1.4,0.1
				C215.2,266.6,215,266.9,214.7,267.2z M208.9,261.7c0.6-0.9,1-1.9,1.4-2.9c0.2-0.7,0.2-1.5-0.5-2.2c-3.2,2.2-4.3,5.7-5.6,9
				C206.1,264.5,207.8,263.4,208.9,261.7z"/>
		</g>
		<g enable-background="new    ">
			<path fill="#A4484C" d="M108.7,381.2c1.1,2-0.4,4.3-1.8,5.8c-1.1,1.1-2.3,2-3.8,2.7c-9.4,4.3-20.9,3.4-27.5-5.9
				c-7.2-10.4-6.8-25.6-5.6-37.6c1.6-16.7,7-32.6,11.9-48.6c0.5-1.8,0.9-3.8,1.6-5.9c-4.9,0.2-7.2,2.2-8.8,6.1
				c-6.7,14.9-13.5,30.1-20.2,45c-3.6,7.6-6.8,15.3-10.4,22.9c-2.5,5.2-5.9,10.1-12.2,10.1c-5.2,0-7.7-4.7-5.2-9.4
				c10.3-19.6,17.6-41,26.6-61.4c5.8-13,11.5-25.9,17.5-38.7c4.5-9.7,9.4-19.3,14-28.8c1.4-3.1,2.9-6.1,4.5-9c1.3-2.5,2.5-2.9,5-1.4
				c14.2,7.4-1.3,31.1-5.4,40.9c-1.4,3.6-3.6,7.2-5.4,10.6c-0.2,0.5-0.2,1.3-0.4,2.5c3.8-1.6,7-2.9,10.1-4.7
				c13-7.2,25.2-15.7,37.4-24.1c1.4-1.3,3.1-2.2,4.5-0.4c1.4,1.6,1.6,3.8,0.2,5.2c-5.8,5.2-12.4,9.4-18.7,13.9
				c-2.2,1.4-19.1,11.3-18.9,12.4c1.6,22.3-10.6,44.1-13.9,65.9c-1.4,10.3-0.5,20.3,2.7,30.2c1.1,3.6,3.6,4.9,7.2,5
				c2.9,0.2,5.8-0.7,8.5-1.6c1.4-0.5,2.9-1.1,4.3-1.8c0.7-0.4,1.4-0.7,2,0L108.7,381.2z"/>
			<path fill="#A4484C" d="M98.3,322.9c0-0.5-0.4-1.1-0.2-1.4c3.2-8.3,13.1-10.8,20.2-5.6c4,3.1,5,6.5,3.8,11
				c-0.9,2.9-1.4,5.8-2.3,9.2c3.8-3.6,7.2-6.8,10.6-10.1c4.1-4,9-6.7,15.1-6.1c3.6,0.4,6.8,2.7,8.5,5.9c3.2,6.7-2,16.2-4.1,22.5
				c-3.1,8.1-6.1,16.2-9.2,24.5c-4.1,11.3-11,21.4-16.4,32.4c1.4-0.7,2.5-2.7,3.6-3.8c2.5-3.1,5-5.9,7.4-8.8
				c5.9-7,11.9-13.9,17.6-20.9c7.9-9.4,17.1-17.6,25.7-26.5c2-2,4.7-5.2,6.7-7.2c1.6-1.8,3.4-2.9,5.9-1.6c0.7,1.8-0.7,2.7-1.8,3.8
				c-6.7,6.5-14.8,13.7-20.7,20.7c-4,4.9-28.8,37.4-32.2,42.7c-3.2,5.4-6.5,11.9-12.1,15.1c-5.4,3.2-11.5-0.9-13.9-6.1
				c-1.8-4.1-1.3-8.6,0.2-12.8c4.5-12.1,11-23.4,16.6-35.1c5.8-12.1,10.1-25,14.9-37.4c0.2-0.5,0.2-1.3,0.2-2
				c-2.7-0.9-5-0.2-6.8,1.8c-6.1,5.8-12.6,11.7-18,18.2c-5,6.1-7.4,13.9-10.6,21.1c-4.7,11.2-18.2-1.1-13.7-9.9
				c3.2-6.5,6.1-13.1,9-19.8c1.8-4,3.4-8.1,5.2-12.2c0.4-0.9,0.5-2,0.9-3.4C104.6,322,101.9,324.7,98.3,322.9z"/>
			<path fill="#A4484C" d="M194.8,384.8c2.9-2.3,5.9-4.7,8.3-7.6c5-7.2,9.9-14.6,14.8-21.8c0.5-0.9,0.9-2,1.3-2.9
				c-7.9-5.9-6.8-21.4,2.9-27.2c2.9-1.8,5.8-1.3,7.9,0.4c2.7,1.8,3.4,4.9,2.9,7.9c-0.7,3.6-1.8,7-2.9,10.8c5.4-0.9,9.4-4.1,13.5-7
				c0.9-0.7,2-1.4,3.1-2c1.6-0.5,3.1,0.2,3.6,1.6c0.4,1.1,0.2,2.3,0,3.4c-0.2,0.7-1.1,1.1-1.8,1.6c-6.3,4.9-12.6,9.9-20.7,11.5
				c-2,0.4-3.2,1.6-4.3,3.6c-4.1,7.6-7.6,15.5-13,22.3c-4,5.2-8.8,9.7-14.8,12.1c-7.7,3.2-13.9,2.5-19.3-5.8
				c-5-7.7-4.7-15.7-1.8-23.6c2.3-6.1,5.4-12.1,8.6-17.6c4.1-7,8.6-13.7,12.8-20.3c0.7-0.9,1.3-2,2-2.7c2-2.5,4.1-5.2,7.7-4.3
				c4.1,1.3,7.2,4.1,8.3,8.3c0.4,1.4-0.7,3.4-1.4,4.7c-5.6,9-11.3,17.8-16.6,26.8c-3.6,6.5-6.8,13.1-8.6,20.3
				c-0.7,2.9-0.9,5.6,0.9,8.1C190.5,386.8,192.8,386.2,194.8,384.8z M228.4,331.5c0.2-1.1-0.2-2.3-0.4-3.6
				c-9.9,4.9-10.8,12.4-6.1,18.7C224.8,342.5,227.9,335.8,228.4,331.5z"/>
			<path fill="#A4484C" d="M287.8,281.1c1.6,2.3,1.1,3.8-1.3,4.5c-0.2,0.2-0.4,0.2-0.4,0.2c-5,0-7,3.4-8.5,7.4
				c-3.8,10.4-9,20-12.6,30.4c-3.8,11.5-9.2,22.3-13.9,33.5c-1.4,3.2-7.7,18.5-2.9,20.7c4.1,2,9-5.9,11.2-8.3
				c3.2-3.4,6.3-7,9.2-10.6c3.4-4.3,6.3-9.2,9.4-13.7c2.3-3.4,5-6.8,7.2-10.4c1.4-2,3.1-1.8,4.5-0.9c1.8,0.9,1.6,2.5,0.4,4
				c-0.5,0.9-1.3,1.8-2,2.7c-4.3,6.5-8.6,13-13.3,19.3c-3.4,4.7-7,9.2-11,13.5c-2.9,3.1-5.6,6.1-9.5,8.5c-5.4,3.1-12.2,1.3-15.8-4
				c-4.3-6.1-2.7-15.7-0.7-22.3c3.4-12.2,7.4-24.3,11.3-36.4c2.9-8.6,6.1-17.3,9.2-25.9c0.2-0.9,0.4-2,0.7-3.1
				c-3.6-1.3-7,2.5-11.2-0.4c1.6-1.1,2.7-2,4-2.7c0.9-0.4,1.8-0.7,2.7-0.7c5.6-0.2,8.3-4,10.1-8.6c2.3-5.8,4.7-11.5,7-17.3
				c1.8-4.1,3.2-9.2,9-7.6c4.9,1.4,8.6,7.6,7.2,12.6c-1.3,5-3.2,10.1-5,15.7C284.8,281.1,286.2,281.1,287.8,281.1z"/>
		</g>
	</g>
</g>
</svg>
